<svg width="556" height="59" viewBox="0 0 556 59" fill="none" xmlns="http://www.w3.org/2000/svg">
<path d="M67.7248 0H3.27521C1.46636 0 0 1.438 0 3.21186V48.7881C0 50.562 1.46636 52 3.27521 52H67.7248C69.5336 52 71 50.562 71 48.7881V3.21186C71 1.438 69.5336 0 67.7248 0Z" fill="#F0572D"/>
<path d="M47.4053 35.8379C46.356 35.8368 45.3079 35.7681 44.2677 35.6323C43.296 35.5166 42.3457 35.2679 41.4445 34.8936C40.6572 34.5763 39.9652 34.0679 39.4335 33.4161C38.9058 32.7081 38.64 31.8448 38.6802 30.9687V9.72546H44.176V19.9071L43.1214 18.1727C43.5977 17.6412 44.1883 17.22 44.8507 16.9393C45.5342 16.6375 46.2539 16.4216 46.9927 16.2969C47.5891 16.1866 48.1938 16.1243 48.8006 16.1106C51.6085 16.1106 53.7461 16.9414 55.2134 18.603C56.6807 20.2646 57.4144 22.6928 57.4144 25.8875C57.4595 27.4933 57.2041 29.0935 56.6611 30.609C56.228 31.7845 55.5058 32.837 54.5584 33.6731C53.638 34.4429 52.5587 35.0082 51.3945 35.3304C50.0963 35.6853 48.7529 35.8562 47.4053 35.8379ZM47.3333 31.2642C48.2522 31.3082 49.1638 31.0847 49.9535 30.6218C50.6045 30.1885 51.0979 29.563 51.3618 28.836C51.6631 27.9944 51.8095 27.107 51.7941 26.2151C51.8421 25.0693 51.6504 23.926 51.2308 22.8555C50.9304 22.1063 50.3902 21.4729 49.6914 21.0505C49.002 20.6716 48.2216 20.4808 47.4315 20.498C46.8765 20.5027 46.3234 20.563 45.7808 20.6779C45.2132 20.7905 44.6673 20.9899 44.1629 21.2689V29.5362C44.1494 29.7268 44.1794 29.918 44.2508 30.0958C44.3222 30.2736 44.4332 30.4336 44.5756 30.564C44.9039 30.8377 45.2988 31.0235 45.7219 31.1036C46.2509 31.2185 46.7915 31.2745 47.3333 31.2706V31.2642Z" fill="white"/>
<path d="M13.9459 35.2855V10.6826H24.027C28.2935 10.6826 31.4289 11.7233 33.4334 13.8045C35.4378 15.8858 36.44 18.9478 36.44 22.9905C36.44 27.0246 35.4378 30.0801 33.4334 32.1571C31.4289 34.2341 28.2935 35.2726 24.027 35.2726L13.9459 35.2855ZM20.0378 30.6797H23.313C25.5707 30.6797 27.2825 30.0651 28.4485 28.8361C29.6145 27.6027 30.1975 25.6627 30.1975 23.0033C30.1975 20.3439 29.6145 18.3397 28.4485 17.1192C27.2825 15.8987 25.5729 15.282 23.313 15.282H20.0378V30.6797Z" fill="white"/>
<path d="M34.1277 40.6491V42.2614H13.5921V40.6362L34.1277 40.6491Z" fill="white"/>
<path d="M54.6632 40.6491V42.2614H34.1276V40.6362L54.6632 40.6491Z" fill="white"/>
<path d="M88.022 42.18C87.134 42.18 86.36 42.03 85.7 41.73C85.04 41.418 84.386 40.938 83.738 40.29C83.666 40.218 83.63 40.128 83.63 40.02C83.63 39.924 83.672 39.834 83.756 39.75C83.84 39.654 83.93 39.606 84.026 39.606C84.134 39.606 84.236 39.66 84.332 39.768C84.8 40.32 85.352 40.74 85.988 41.028C86.636 41.316 87.314 41.46 88.022 41.46C88.946 41.46 89.708 41.238 90.308 40.794C90.908 40.35 91.208 39.762 91.208 39.03C91.196 38.454 91.04 37.98 90.74 37.608C90.44 37.236 90.068 36.942 89.624 36.726C89.192 36.498 88.598 36.246 87.842 35.97C87.014 35.658 86.366 35.382 85.898 35.142C85.442 34.902 85.046 34.56 84.71 34.116C84.386 33.672 84.224 33.09 84.224 32.37C84.224 31.782 84.386 31.248 84.71 30.768C85.034 30.288 85.496 29.91 86.096 29.634C86.696 29.358 87.392 29.22 88.184 29.22C88.892 29.22 89.564 29.352 90.2 29.616C90.836 29.868 91.34 30.228 91.712 30.696C91.832 30.864 91.892 30.99 91.892 31.074C91.892 31.17 91.844 31.26 91.748 31.344C91.664 31.416 91.568 31.452 91.46 31.452C91.364 31.452 91.286 31.416 91.226 31.344C90.89 30.912 90.458 30.57 89.93 30.318C89.402 30.066 88.82 29.94 88.184 29.94C87.272 29.94 86.51 30.156 85.898 30.588C85.298 31.02 84.998 31.608 84.998 32.352C84.998 32.868 85.142 33.306 85.43 33.666C85.73 34.026 86.102 34.32 86.546 34.548C86.99 34.764 87.542 34.992 88.202 35.232C89.042 35.532 89.708 35.808 90.2 36.06C90.692 36.312 91.112 36.678 91.46 37.158C91.808 37.638 91.982 38.274 91.982 39.066C91.982 39.618 91.82 40.134 91.496 40.614C91.172 41.094 90.704 41.478 90.092 41.766C89.492 42.042 88.802 42.18 88.022 42.18ZM95.1105 41.64C95.1105 41.736 95.0745 41.82 95.0025 41.892C94.9305 41.964 94.8465 42 94.7505 42C94.6425 42 94.5525 41.964 94.4805 41.892C94.4205 41.82 94.3905 41.736 94.3905 41.64V33.09C94.3905 32.994 94.4265 32.91 94.4985 32.838C94.5705 32.766 94.6545 32.73 94.7505 32.73C94.8585 32.73 94.9425 32.766 95.0025 32.838C95.0745 32.91 95.1105 32.994 95.1105 33.09V41.64ZM94.7505 31.506C94.5585 31.506 94.4025 31.452 94.2825 31.344C94.1745 31.236 94.1205 31.098 94.1205 30.93V30.786C94.1205 30.618 94.1805 30.48 94.3005 30.372C94.4205 30.264 94.5765 30.21 94.7685 30.21C94.9365 30.21 95.0745 30.264 95.1825 30.372C95.3025 30.48 95.3625 30.618 95.3625 30.786V30.93C95.3625 31.098 95.3025 31.236 95.1825 31.344C95.0745 31.452 94.9305 31.506 94.7505 31.506ZM102.185 32.73C103.253 32.73 104.057 33.048 104.597 33.684C105.137 34.308 105.407 35.124 105.407 36.132V41.64C105.407 41.736 105.371 41.82 105.299 41.892C105.227 41.964 105.143 42 105.047 42C104.939 42 104.849 41.964 104.777 41.892C104.717 41.82 104.687 41.736 104.687 41.64V36.204C104.687 35.388 104.471 34.722 104.039 34.206C103.619 33.678 102.977 33.414 102.113 33.414C101.585 33.414 101.063 33.54 100.547 33.792C100.043 34.044 99.6295 34.386 99.3055 34.818C98.9815 35.25 98.8195 35.712 98.8195 36.204V41.64C98.8195 41.736 98.7835 41.82 98.7115 41.892C98.6395 41.964 98.5555 42 98.4595 42C98.3515 42 98.2615 41.964 98.1895 41.892C98.1295 41.82 98.0995 41.736 98.0995 41.64V33.378C98.0995 33.282 98.1355 33.198 98.2075 33.126C98.2795 33.054 98.3635 33.018 98.4595 33.018C98.5675 33.018 98.6515 33.054 98.7115 33.126C98.7835 33.198 98.8195 33.282 98.8195 33.378V34.584C99.1675 34.044 99.6535 33.6 100.277 33.252C100.913 32.904 101.549 32.73 102.185 32.73ZM111.748 32.946C111.832 32.946 111.91 32.982 111.982 33.054C112.054 33.126 112.09 33.204 112.09 33.288C112.09 33.384 112.054 33.468 111.982 33.54C111.922 33.6 111.844 33.63 111.748 33.63H109.768V40.038C109.768 40.566 109.858 40.92 110.038 41.1C110.23 41.268 110.47 41.352 110.758 41.352C110.806 41.352 110.872 41.34 110.956 41.316C111.052 41.292 111.13 41.28 111.19 41.28C111.274 41.28 111.346 41.316 111.406 41.388C111.466 41.448 111.496 41.52 111.496 41.604C111.496 41.712 111.424 41.808 111.28 41.892C111.136 41.964 110.968 42 110.776 42C110.476 42 110.224 41.982 110.02 41.946C109.816 41.898 109.6 41.736 109.372 41.46C109.156 41.172 109.048 40.71 109.048 40.074V33.63H107.572C107.488 33.63 107.41 33.594 107.338 33.522C107.266 33.45 107.23 33.372 107.23 33.288C107.23 33.192 107.26 33.114 107.32 33.054C107.392 32.982 107.476 32.946 107.572 32.946H109.048V30.66C109.048 30.564 109.084 30.48 109.156 30.408C109.228 30.336 109.312 30.3 109.408 30.3C109.516 30.3 109.6 30.336 109.66 30.408C109.732 30.48 109.768 30.564 109.768 30.66V32.946H111.748ZM121.458 33.018C121.566 33.018 121.65 33.054 121.71 33.126C121.782 33.198 121.818 33.282 121.818 33.378V41.64C121.818 41.736 121.782 41.82 121.71 41.892C121.638 41.964 121.554 42 121.458 42C121.35 42 121.26 41.964 121.188 41.892C121.128 41.82 121.098 41.736 121.098 41.64V40.02C120.798 40.632 120.336 41.148 119.712 41.568C119.088 41.976 118.398 42.18 117.642 42.18C116.85 42.18 116.136 41.976 115.5 41.568C114.864 41.148 114.366 40.578 114.006 39.858C113.646 39.126 113.466 38.31 113.466 37.41C113.466 36.522 113.646 35.724 114.006 35.016C114.378 34.296 114.882 33.738 115.518 33.342C116.154 32.934 116.862 32.73 117.642 32.73C118.422 32.73 119.124 32.934 119.748 33.342C120.372 33.75 120.822 34.296 121.098 34.98V33.378C121.098 33.282 121.128 33.198 121.188 33.126C121.26 33.054 121.35 33.018 121.458 33.018ZM117.678 41.496C118.338 41.496 118.932 41.322 119.46 40.974C120 40.614 120.42 40.122 120.72 39.498C121.02 38.874 121.17 38.178 121.17 37.41C121.17 36.678 121.02 36.006 120.72 35.394C120.42 34.782 120 34.302 119.46 33.954C118.932 33.594 118.338 33.414 117.678 33.414C117.018 33.414 116.418 33.588 115.878 33.936C115.35 34.272 114.936 34.746 114.636 35.358C114.336 35.958 114.186 36.642 114.186 37.41C114.186 38.178 114.336 38.874 114.636 39.498C114.936 40.122 115.35 40.614 115.878 40.974C116.406 41.322 117.006 41.496 117.678 41.496ZM124.729 37.95C124.633 37.95 124.549 37.914 124.477 37.842C124.417 37.77 124.387 37.68 124.387 37.572C124.387 37.476 124.417 37.398 124.477 37.338C124.549 37.266 124.633 37.23 124.729 37.23H128.869C128.965 37.23 129.043 37.266 129.103 37.338C129.175 37.41 129.211 37.5 129.211 37.608C129.211 37.704 129.175 37.788 129.103 37.86C129.043 37.92 128.965 37.95 128.869 37.95H124.729ZM131.275 40.56C131.191 40.428 131.149 40.314 131.149 40.218C131.149 40.134 131.197 40.056 131.293 39.984C131.353 39.924 131.425 39.894 131.509 39.894C131.629 39.894 131.725 39.942 131.797 40.038C132.493 41.034 133.465 41.532 134.713 41.532C135.349 41.532 135.907 41.376 136.387 41.064C136.867 40.74 137.107 40.308 137.107 39.768C137.107 39.216 136.897 38.802 136.477 38.526C136.057 38.25 135.481 38.022 134.749 37.842C133.777 37.602 133.009 37.284 132.445 36.888C131.893 36.48 131.617 35.91 131.617 35.178C131.617 34.47 131.899 33.888 132.463 33.432C133.027 32.964 133.753 32.73 134.641 32.73C135.133 32.73 135.619 32.826 136.099 33.018C136.591 33.21 137.035 33.516 137.431 33.936C137.515 34.008 137.557 34.092 137.557 34.188C137.557 34.296 137.515 34.392 137.431 34.476C137.335 34.524 137.257 34.548 137.197 34.548C137.113 34.548 137.041 34.512 136.981 34.44C136.357 33.756 135.553 33.414 134.569 33.414C133.933 33.414 133.393 33.57 132.949 33.882C132.517 34.194 132.301 34.626 132.301 35.178C132.337 35.694 132.571 36.096 133.003 36.384C133.447 36.66 134.095 36.906 134.947 37.122C135.559 37.278 136.063 37.452 136.459 37.644C136.867 37.824 137.191 38.082 137.431 38.418C137.671 38.754 137.791 39.192 137.791 39.732C137.791 40.488 137.497 41.088 136.909 41.532C136.333 41.964 135.577 42.18 134.641 42.18C133.273 42.18 132.151 41.64 131.275 40.56ZM147.256 39.84C147.34 39.84 147.412 39.876 147.472 39.948C147.532 40.008 147.562 40.08 147.562 40.164C147.562 40.248 147.538 40.32 147.49 40.38C147.094 40.908 146.602 41.34 146.014 41.676C145.426 42.012 144.796 42.18 144.124 42.18C143.224 42.18 142.426 41.988 141.73 41.604C141.034 41.22 140.488 40.674 140.092 39.966C139.708 39.258 139.516 38.436 139.516 37.5C139.516 36.54 139.702 35.7 140.074 34.98C140.458 34.248 140.962 33.69 141.586 33.306C142.21 32.922 142.876 32.73 143.584 32.73C144.292 32.73 144.946 32.886 145.546 33.198C146.158 33.498 146.656 33.954 147.04 34.566C147.424 35.178 147.628 35.934 147.652 36.834C147.652 36.93 147.616 37.02 147.544 37.104C147.472 37.176 147.388 37.212 147.292 37.212H140.218V37.446C140.218 38.19 140.368 38.874 140.668 39.498C140.968 40.11 141.412 40.596 142 40.956C142.588 41.316 143.296 41.496 144.124 41.496C144.7 41.496 145.24 41.358 145.744 41.082C146.26 40.794 146.662 40.434 146.95 40.002C147.034 39.894 147.136 39.84 147.256 39.84ZM143.584 33.45C143.14 33.45 142.684 33.57 142.216 33.81C141.76 34.038 141.352 34.386 140.992 34.854C140.644 35.31 140.41 35.868 140.29 36.528H146.914V36.366C146.854 35.754 146.656 35.232 146.32 34.8C145.996 34.356 145.588 34.02 145.096 33.792C144.616 33.564 144.112 33.45 143.584 33.45ZM161.969 39.84C162.053 39.84 162.125 39.876 162.185 39.948C162.245 40.008 162.275 40.08 162.275 40.164C162.275 40.248 162.251 40.32 162.203 40.38C161.807 40.908 161.315 41.34 160.727 41.676C160.139 42.012 159.509 42.18 158.837 42.18C157.937 42.18 157.139 41.988 156.443 41.604C155.747 41.22 155.201 40.674 154.805 39.966C154.421 39.258 154.229 38.436 154.229 37.5C154.229 36.54 154.415 35.7 154.787 34.98C155.171 34.248 155.675 33.69 156.299 33.306C156.923 32.922 157.589 32.73 158.297 32.73C159.005 32.73 159.659 32.886 160.259 33.198C160.871 33.498 161.369 33.954 161.753 34.566C162.137 35.178 162.341 35.934 162.365 36.834C162.365 36.93 162.329 37.02 162.257 37.104C162.185 37.176 162.101 37.212 162.005 37.212H154.931V37.446C154.931 38.19 155.081 38.874 155.381 39.498C155.681 40.11 156.125 40.596 156.713 40.956C157.301 41.316 158.009 41.496 158.837 41.496C159.413 41.496 159.953 41.358 160.457 41.082C160.973 40.794 161.375 40.434 161.663 40.002C161.747 39.894 161.849 39.84 161.969 39.84ZM158.297 33.45C157.853 33.45 157.397 33.57 156.929 33.81C156.473 34.038 156.065 34.386 155.705 34.854C155.357 35.31 155.123 35.868 155.003 36.528H161.627V36.366C161.567 35.754 161.369 35.232 161.033 34.8C160.709 34.356 160.301 34.02 159.809 33.792C159.329 33.564 158.825 33.45 158.297 33.45ZM174.945 32.91C175.977 32.91 176.757 33.234 177.285 33.882C177.825 34.53 178.095 35.37 178.095 36.402V41.64C178.095 41.736 178.059 41.82 177.987 41.892C177.927 41.964 177.843 42 177.735 42C177.627 42 177.537 41.964 177.465 41.892C177.405 41.82 177.375 41.736 177.375 41.64V36.474C177.375 35.622 177.165 34.932 176.745 34.404C176.337 33.864 175.713 33.594 174.873 33.594C174.357 33.594 173.847 33.726 173.343 33.99C172.851 34.254 172.449 34.608 172.137 35.052C171.825 35.484 171.669 35.958 171.669 36.474V41.64C171.669 41.736 171.633 41.82 171.561 41.892C171.501 41.964 171.417 42 171.309 42C171.201 42 171.111 41.964 171.039 41.892C170.979 41.82 170.949 41.736 170.949 41.64V36.384C170.949 35.556 170.751 34.884 170.355 34.368C169.959 33.852 169.359 33.594 168.555 33.594C168.051 33.594 167.559 33.72 167.079 33.972C166.599 34.224 166.203 34.566 165.891 34.998C165.591 35.43 165.441 35.892 165.441 36.384V41.64C165.441 41.736 165.405 41.82 165.333 41.892C165.261 41.964 165.177 42 165.081 42C164.973 42 164.883 41.964 164.811 41.892C164.751 41.82 164.721 41.736 164.721 41.64V33.378C164.721 33.282 164.757 33.198 164.829 33.126C164.901 33.054 164.985 33.018 165.081 33.018C165.189 33.018 165.273 33.054 165.333 33.126C165.405 33.198 165.441 33.282 165.441 33.378V34.638C165.789 34.134 166.239 33.72 166.791 33.396C167.355 33.072 167.943 32.91 168.555 32.91C169.215 32.91 169.803 33.078 170.319 33.414C170.835 33.75 171.213 34.242 171.453 34.89C171.705 34.338 172.179 33.87 172.875 33.486C173.583 33.102 174.273 32.91 174.945 32.91ZM189.843 32.73C190.359 32.73 190.857 32.79 191.337 32.91C191.829 33.03 192.219 33.192 192.507 33.396C192.807 33.588 192.957 33.792 192.957 34.008C192.957 34.104 192.921 34.188 192.849 34.26C192.789 34.332 192.711 34.368 192.615 34.368C192.507 34.368 192.423 34.35 192.363 34.314C192.315 34.278 192.243 34.212 192.147 34.116C191.991 33.936 191.829 33.804 191.661 33.72C191.229 33.516 190.617 33.414 189.825 33.414C189.141 33.414 188.505 33.594 187.917 33.954C187.341 34.314 186.879 34.806 186.531 35.43C186.195 36.042 186.027 36.714 186.027 37.446C186.027 38.214 186.183 38.91 186.495 39.534C186.819 40.146 187.269 40.626 187.845 40.974C188.433 41.322 189.093 41.496 189.825 41.496C190.305 41.496 190.683 41.454 190.959 41.37C191.235 41.286 191.511 41.166 191.787 41.01C191.979 40.89 192.147 40.758 192.291 40.614C192.351 40.554 192.411 40.506 192.471 40.47C192.531 40.422 192.591 40.398 192.651 40.398C192.747 40.398 192.819 40.428 192.867 40.488C192.927 40.548 192.957 40.626 192.957 40.722C192.957 40.89 192.819 41.094 192.543 41.334C192.267 41.562 191.883 41.76 191.391 41.928C190.911 42.096 190.371 42.18 189.771 42.18C188.907 42.18 188.133 41.976 187.449 41.568C186.777 41.16 186.249 40.596 185.865 39.876C185.493 39.156 185.307 38.346 185.307 37.446C185.307 36.606 185.493 35.826 185.865 35.106C186.249 34.386 186.783 33.81 187.467 33.378C188.163 32.946 188.955 32.73 189.843 32.73ZM202.528 33.018C202.636 33.018 202.72 33.054 202.78 33.126C202.852 33.198 202.888 33.282 202.888 33.378V41.64C202.888 41.736 202.852 41.82 202.78 41.892C202.708 41.964 202.624 42 202.528 42C202.42 42 202.33 41.964 202.258 41.892C202.198 41.82 202.168 41.736 202.168 41.64V40.02C201.868 40.632 201.406 41.148 200.782 41.568C200.158 41.976 199.468 42.18 198.712 42.18C197.92 42.18 197.206 41.976 196.57 41.568C195.934 41.148 195.436 40.578 195.076 39.858C194.716 39.126 194.536 38.31 194.536 37.41C194.536 36.522 194.716 35.724 195.076 35.016C195.448 34.296 195.952 33.738 196.588 33.342C197.224 32.934 197.932 32.73 198.712 32.73C199.492 32.73 200.194 32.934 200.818 33.342C201.442 33.75 201.892 34.296 202.168 34.98V33.378C202.168 33.282 202.198 33.198 202.258 33.126C202.33 33.054 202.42 33.018 202.528 33.018ZM198.748 41.496C199.408 41.496 200.002 41.322 200.53 40.974C201.07 40.614 201.49 40.122 201.79 39.498C202.09 38.874 202.24 38.178 202.24 37.41C202.24 36.678 202.09 36.006 201.79 35.394C201.49 34.782 201.07 34.302 200.53 33.954C200.002 33.594 199.408 33.414 198.748 33.414C198.088 33.414 197.488 33.588 196.948 33.936C196.42 34.272 196.006 34.746 195.706 35.358C195.406 35.958 195.256 36.642 195.256 37.41C195.256 38.178 195.406 38.874 195.706 39.498C196.006 40.122 196.42 40.614 196.948 40.974C197.476 41.322 198.076 41.496 198.748 41.496ZM205.367 40.56C205.283 40.428 205.241 40.314 205.241 40.218C205.241 40.134 205.289 40.056 205.385 39.984C205.445 39.924 205.517 39.894 205.601 39.894C205.721 39.894 205.817 39.942 205.889 40.038C206.585 41.034 207.557 41.532 208.805 41.532C209.441 41.532 209.999 41.376 210.479 41.064C210.959 40.74 211.199 40.308 211.199 39.768C211.199 39.216 210.989 38.802 210.569 38.526C210.149 38.25 209.573 38.022 208.841 37.842C207.869 37.602 207.101 37.284 206.537 36.888C205.985 36.48 205.709 35.91 205.709 35.178C205.709 34.47 205.991 33.888 206.555 33.432C207.119 32.964 207.845 32.73 208.733 32.73C209.225 32.73 209.711 32.826 210.191 33.018C210.683 33.21 211.127 33.516 211.523 33.936C211.607 34.008 211.649 34.092 211.649 34.188C211.649 34.296 211.607 34.392 211.523 34.476C211.427 34.524 211.349 34.548 211.289 34.548C211.205 34.548 211.133 34.512 211.073 34.44C210.449 33.756 209.645 33.414 208.661 33.414C208.025 33.414 207.485 33.57 207.041 33.882C206.609 34.194 206.393 34.626 206.393 35.178C206.429 35.694 206.663 36.096 207.095 36.384C207.539 36.66 208.187 36.906 209.039 37.122C209.651 37.278 210.155 37.452 210.551 37.644C210.959 37.824 211.283 38.082 211.523 38.418C211.763 38.754 211.883 39.192 211.883 39.732C211.883 40.488 211.589 41.088 211.001 41.532C210.425 41.964 209.669 42.18 208.733 42.18C207.365 42.18 206.243 41.64 205.367 40.56ZM221.741 33.018C221.849 33.018 221.933 33.054 221.993 33.126C222.065 33.198 222.101 33.282 222.101 33.378V41.64C222.101 41.736 222.065 41.82 221.993 41.892C221.921 41.964 221.837 42 221.741 42C221.633 42 221.543 41.964 221.471 41.892C221.411 41.82 221.381 41.736 221.381 41.64V40.02C221.081 40.632 220.619 41.148 219.995 41.568C219.371 41.976 218.681 42.18 217.925 42.18C217.133 42.18 216.419 41.976 215.783 41.568C215.147 41.148 214.649 40.578 214.289 39.858C213.929 39.126 213.749 38.31 213.749 37.41C213.749 36.522 213.929 35.724 214.289 35.016C214.661 34.296 215.165 33.738 215.801 33.342C216.437 32.934 217.145 32.73 217.925 32.73C218.705 32.73 219.407 32.934 220.031 33.342C220.655 33.75 221.105 34.296 221.381 34.98V33.378C221.381 33.282 221.411 33.198 221.471 33.126C221.543 33.054 221.633 33.018 221.741 33.018ZM217.961 41.496C218.621 41.496 219.215 41.322 219.743 40.974C220.283 40.614 220.703 40.122 221.003 39.498C221.303 38.874 221.453 38.178 221.453 37.41C221.453 36.678 221.303 36.006 221.003 35.394C220.703 34.782 220.283 34.302 219.743 33.954C219.215 33.594 218.621 33.414 217.961 33.414C217.301 33.414 216.701 33.588 216.161 33.936C215.633 34.272 215.219 34.746 214.919 35.358C214.619 35.958 214.469 36.642 214.469 37.41C214.469 38.178 214.619 38.874 214.919 39.498C215.219 40.122 215.633 40.614 216.161 40.974C216.689 41.322 217.289 41.496 217.961 41.496Z" fill="#191B1D"/>
</svg>
